Coordinates
version=1
nRows=22
nColumns=24
inDegrees=yes

Units are S.I. units (second, meters, Newtons, ...)
Angles are in degrees.

endheader
time	pelvis_tilt	pelvis_list	pelvis_rotation	pelvis_tx	pelvis_ty	pelvis_tz	hip_flexion_r	hip_adduction_r	hip_rotation_r	knee_angle_r	ankle_angle_r	subtalar_angle_r	mtp_angle_r	hip_flexion_l	hip_adduction_l	hip_rotation_l	knee_angle_l	ankle_angle_l	subtalar_angle_l	mtp_angle_l	lumbar_extension	lumbar_bending	lumbar_rotation
      3.49500000	    -11.01221796	      4.48505482	     -8.03671538	     -1.17623270	     -0.04961128	      0.71078167	     -7.37279189	     -6.12506514	      7.32097083	    -14.02054631	      9.58460712	      5.54338762	     14.57346494	     40.92406252	     -0.72810046	     -7.97556219	    -23.21343040	      0.98362870	      5.09397540	      2.01816719	      6.16632546	     -1.14865491	      8.24361640
      3.50000000	    -11.12023688	      4.78076565	     -8.16940490	     -1.16765721	     -0.05075748	      0.71087203	     -7.10932835	     -6.53805718	      6.97973476	    -15.04140711	      9.11802614	      6.35563691	     15.69515084	     41.00382955	     -0.45102883	     -7.93789289	    -23.76586021	     -0.00587183	      4.40181512	      3.56073482	      6.40434585	     -1.61116874	      8.30902648
      3.50500000	    -11.34807982	      5.16014367	     -8.25912407	     -1.15888262	     -0.05194722	      0.71111264	     -6.68045225	     -6.97939703	      6.85889610	    -16.13834045	      8.48872031	      6.76490050	     16.59772981	     41.26452633	     -0.11776051	     -7.92854427	    -24.49221287	     -0.84598868	      3.83823703	      4.80155085	      6.82640240	     -2.17820830	      8.32067273
      3.51000000	    -11.54622565	      5.52416667	     -8.39541949	     -1.15033184	     -0.05302159	      0.71127790	     -6.14409207	     -7.41760625	      6.77825157	    -17.44397520	      7.88034383	      7.33510261	     17.15087018	     41.56341954	      0.21752702	     -7.74864304	    -25.39737695	     -1.39998615	      3.15546098	      5.19136436	      7.18215999	     -2.71034834	      8.41409461
      3.51500000	    -11.75384433	      5.89484917	     -8.38429141	     -1.14178956	     -0.05402829	      0.71123848	     -5.54816678	     -7.86351142	      6.50233526	    -18.83390347	      7.06287353	      7.96382513	     18.14310462	     41.93283077	      0.67900291	     -7.36200434	    -26.38989359	     -1.94959364	      2.39592861	      5.61814957	      7.53826944	     -3.27298124	      8.35438765
      3.52000000	    -11.88376372	      6.23719931	     -8.36508994	     -1.13339565	     -0.05487662	      0.71114433	     -4.95918038	     -8.28382910	      6.30090203	    -20.29003778	      5.94254258	      8.38836037	     19.87612743	     42.26434217	      1.16279298	     -6.88217797	    -27.45743459	     -2.30954837	      1.54092073	      5.75297375	      7.77789420	     -3.81841736	      8.23933425
      3.52500000	    -12.06800944	      6.69334005	     -8.25370173	     -1.12479021	     -0.05575631	      0.71104358	     -4.25211930	     -8.80746744	      6.00126500	    -21.85675080	      4.71076850	      8.75006610	     21.48864771	     42.67136647	      1.80261904	     -6.42324068	    -28.56488324	     -2.22250772	      0.79678652	      4.80806405	      8.12614870	     -4.50575617	      8.04713983
      3.53000000	    -12.17635452	      7.12831405	     -8.17839409	     -1.11630310	     -0.05648393	      0.71081934	     -3.52970762	     -9.33722063	      5.76230284	    -23.51122638	      3.24302959	      9.13587557	     23.49120769	     43.00563356	      2.46158148	     -5.93873005	    -29.71528327	     -1.54963064	     -0.02316916	      1.99119789	      8.36970172	     -5.15421328	      7.92058458
      3.53500000	    -12.25560596	      7.55720270	     -8.05145317	     -1.10782083	     -0.05718666	      0.71049062	     -2.77539089	     -9.87033952	      5.46965070	    -25.25927139	      1.64720171	      9.55167499	     25.44185967	     43.29127224	      3.17473177	     -5.45016311	    -30.83504295	     -0.49547202	     -0.88287506	     -2.08878535	      8.57212744	     -5.80249621	      7.73494315
      3.54000000	    -12.29700116	      7.99601229	     -7.90144443	     -1.09931057	     -0.05779882	      0.71013042	     -2.01454959	    -10.42051021	      5.18349956	    -27.03271029	     -0.20876711	      9.88257532	     27.61655171	     43.49393782	      3.91717729	     -5.08685367	    -31.86651369	      0.84170896	     -1.82288142	     -7.36407188	      8.73442378	     -6.46880355	      7.48011852
      3.54500000	    -12.32934756	      8.52004834	     -7.81031064	     -1.09077092	     -0.05838393	      0.70988681	     -1.15854405	    -11.04782286	      5.03105202	    -28.93809816	     -2.07103459	     10.22553717	     28.98555406	     43.62652681	      4.70430423	     -4.80710964	    -32.82027727	      2.98971242	     -2.61539705	    -15.15538709	      8.92035648	     -7.21591827	      7.35949018
      3.55000000	    -12.28766797	      8.88427206	     -7.61900374	     -1.08233860	     -0.05880567	      0.70957047	     -0.41810350	    -11.50897634	      4.77594453	    -30.70031526	     -4.49414151	     10.20764525	     31.82522594	     43.56474350	      5.40394862	     -4.48112602	    -33.46288749	      3.62434989	     -3.72029975	    -18.27090883	      8.96762746	     -7.82537440	      7.07632574
      3.55500000	    -12.26933164	      9.31328336	     -7.33078724	     -1.07388973	     -0.05923547	      0.70898227	      0.38971267	    -12.04993957	      4.43640885	    -32.56912305	     -6.81730243	     10.31537773	     33.42938989	     43.49461235	      6.29365097	     -3.95153616	    -34.16436539	      6.32082651	     -4.42681040	    -27.73966313	      9.02591035	     -8.49490452	      6.69192696
      3.56000000	    -12.22819000	      9.66995483	     -7.20672018	     -1.06557250	     -0.05952100	      0.70884765	      1.24369589	    -12.46892527	      4.35574443	    -34.37096884	     -9.49491751	     10.14333498	     35.76694024	     43.28403014	      6.89866843	     -3.80390435	    -34.55060704	      6.46386094	     -5.25318991	    -28.41363511	      9.06987344	     -9.08257972	      6.50708774
      3.56500000	    -12.19118502	      9.98391713	     -6.99241536	     -1.05729570	     -0.05973365	      0.70853010	      2.09607415	    -12.84761636	      4.16802027	    -36.13549078	    -12.30756200	      9.82889185	     38.11663625	     43.01789886	      7.54001715	     -3.55801626	    -34.87511116	      6.74893499	     -5.90337084	    -29.09645402	      9.08973061	     -9.62520469	      6.20414977
      3.57000000	    -12.22309668	     10.26700865	     -6.70184744	     -1.04910368	     -0.05994511	      0.70796683	      3.03992348	    -13.20633502	      3.90161997	    -37.90876521	    -15.10755304	      9.56745042	     40.20486346	     42.77771600	      8.21409038	     -3.21922012	    -35.13427493	      6.95539700	     -6.54757257	    -29.42957233	      9.15516774	    -10.11155095	      5.84577678
      3.57500000	    -12.15378297	     10.47766909	     -6.50811471	     -1.04105317	     -0.05986427	      0.70763463	      3.91054303	    -13.45123983	      3.76090289	    -39.60821341	    -18.10461667	      8.85441155	     42.50107338	     42.37806961	      8.74001150	     -2.98785790	    -35.34764934	      7.30288170	     -6.95314956	    -29.59790127	      9.09836662	    -10.52356858	      5.54441371
      3.58000000	    -12.14403470	     10.73261585	     -6.26471343	     -1.03300807	     -0.05980004	      0.70717397	      4.87635339	    -13.77007465	      3.50159689	    -41.33172723	    -20.95701035	      8.11163935	     44.59506850	     42.00705387	      9.32017109	     -2.76356219	    -35.50480951	      7.68582818	     -7.30043739	    -29.74603833	      9.11138706	    -10.96422614	      5.23721046
      3.58500000	    -12.17162161	     10.93005477	     -6.03163886	     -1.02508168	     -0.05962900	      0.70669722	      5.91340650	    -13.99866347	      3.30838813	    -43.06386026	    -23.69003855	      7.16119320	     46.29912444	     41.63489144	      9.83701054	     -2.49216514	    -35.61480719	      8.08473485	     -7.65810039	    -29.95347278	      9.15085561	    -11.32641122	      4.91561512
      3.59000000	    -12.18919896	     11.19266024	     -5.80265730	     -1.01714965	     -0.05940374	      0.70620693	      6.98014993	    -14.32582518	      3.04882722	    -44.81774952	    -26.19944846	      6.03458241	     47.90567829	     41.22865154	     10.38632027	     -2.31926098	    -35.68451819	      8.61135784	     -7.87344415	    -30.31108723	      9.19723713	    -11.74458709	      4.62491162
      3.59500000	    -12.23949576	     11.44852283	     -5.58208798	     -1.00926577	     -0.05910606	      0.70570083	      8.11544536	    -14.63380358	      2.83127904	    -46.60399589	    -28.42065516	      4.73791916	     49.06031473	     40.82327170	     10.91927884	     -2.12315710	    -35.71058588	      9.16950527	     -8.05064472	    -30.76018126	      9.28501733	    -12.13852426	      4.33042837
      3.60000000	    -12.23033579	     11.82669341	     -5.38355279	     -1.00136102	     -0.05871080	      0.70521514	      9.24620036	    -15.08875496	      2.64938181	    -48.49725457	    -30.05661325	      3.56853851	     49.06155727	     40.31913746	     11.55834369	     -1.98273763	    -35.63752977	      9.56977509	     -8.23605820	    -30.76453808	      9.33757293	    -12.65817250	      4.10864060
